<?xml version="1.0" encoding="utf-8"?>
<!-- Generator: Adobe Illustrator 21.1.0, SVG Export Plug-In . SVG Version: 6.00 Build 0)  -->
<svg version="1.1" id="Calque_1" xmlns="http://www.w3.org/2000/svg" xmlns:xlink="http://www.w3.org/1999/xlink" x="0px" y="0px"
	 viewBox="0 0 226.8 226.8" style="enable-background:new 0 0 226.8 226.8;" xml:space="preserve">
<style type="text/css">
	.st0{fill:#272835;}
</style>
<g>
	<polygon class="st0" points="159.1,28.9 144.1,20.2 144.1,126.5 159.1,135.1 	"/>
	<polygon class="st0" points="133.7,14.2 119,5.7 119,111.9 133.7,120.4 	"/>
	<polygon class="st0" points="184.6,43.6 169.6,34.9 169.6,141.2 184.6,149.8 	"/>
	<polygon class="st0" points="195.1,49.7 195.1,155.9 210.5,164.8 210.5,58.5 	"/>
	<polygon class="st0" points="115.1,65.2 23.1,118.3 23.1,135.6 115.1,82.5 	"/>
	<polygon class="st0" points="115.1,94.5 23.7,147.3 23.1,147.7 23.1,164.7 115.1,111.5 	"/>
	<polygon class="st0" points="115.1,35.7 23.1,88.9 23.1,106.2 115.1,53 	"/>
	<polygon class="st0" points="115.1,5.9 23.1,59 23.1,76.7 115.1,23.6 	"/>
	<polygon class="st0" points="76.6,138.2 168.6,191.3 183.6,182.7 91.5,129.6 	"/>
	<polygon class="st0" points="102,123.5 194,176.7 208.7,168.2 116.7,115 	"/>
	<polygon class="st0" points="51.1,152.9 143.1,206.1 158.1,197.4 66,144.3 	"/>
	<polygon class="st0" points="25.2,167.9 117.2,221 132.5,212.2 40.5,159 	"/>
</g>
</svg>
